<svg xmlns="http://www.w3.org/2000/svg" width="41.138" height="40" viewBox="0 0 41.138 40"><g transform="translate(-2729.36 -1151)"><rect width="40" height="40" transform="translate(2730 1151)" fill="rgba(255,255,255,0)" opacity="0"/><path d="M3.572,23.352A9.032,9.032,0,0,1,.3,19.332H3.194a6.44,6.44,0,0,0,10.9,0h2.892a9.015,9.015,0,0,1-13.413,4.02Zm22.2-5.515a2.763,2.763,0,0,1-.206-2.372l1.512-6.032a4.167,4.167,0,0,1,1.375-2.363,3.887,3.887,0,0,1,2.509-.8A2.571,2.571,0,0,1,33.13,7.1a2.65,2.65,0,0,1,.258,2.337l-1.513,6.032a4.166,4.166,0,0,1-1.417,2.354,4,4,0,0,1-2.569.825A2.475,2.475,0,0,1,25.776,17.837ZM30.161,8.1l-1.893,7.587q-.155.567.24.567.429,0,.567-.567L30.969,8.1q.119-.567-.258-.568Q30.3,7.535,30.161,8.1Zm-17.72,9.735a2.76,2.76,0,0,1-.206-2.372l.292-1.185h2.75l-.344,1.392q-.154.583.24.584.43,0,.568-.567l.223-.945a2.233,2.233,0,0,0,.06-.378.464.464,0,0,0-.094-.3,1.444,1.444,0,0,0-.326-.309q-.224-.164-.619-.4l-.516-.292a2.212,2.212,0,0,1-.644-.541,1.807,1.807,0,0,1-.326-.7,2.8,2.8,0,0,1-.035-.945,9.013,9.013,0,0,1,.249-1.264l.069-.326a3.709,3.709,0,0,1,3.849-3.007A2.571,2.571,0,0,1,19.8,7.1a2.653,2.653,0,0,1,.258,2.337l-.309,1.2H17L17.617,8.1q.137-.567-.24-.568-.413,0-.55.585l-.5,2a2.37,2.37,0,0,0-.06.387.489.489,0,0,0,.1.318,1.611,1.611,0,0,0,.36.335q.249.181.679.438l.447.24a2.358,2.358,0,0,1,.644.524,1.578,1.578,0,0,1,.318.67,2.97,2.97,0,0,1,.035.919,8.643,8.643,0,0,1-.24,1.272l-.069.24a4.162,4.162,0,0,1-1.418,2.354,4,4,0,0,1-2.569.825A2.474,2.474,0,0,1,12.441,17.837Zm19.091.636L34.54,6.444h3.075a2.178,2.178,0,0,1,2.1,1.032,4.648,4.648,0,0,1,.017,3.23l-.052.189a7.9,7.9,0,0,1-.644,1.821,4.125,4.125,0,0,1-.9,1.195,3.2,3.2,0,0,1-1.168.661,4.834,4.834,0,0,1-1.461.206H35.21l-.928,3.695Zm4.262-6.083h.292a.491.491,0,0,0,.421-.172,1.457,1.457,0,0,0,.215-.481L37.55,8.36a.982.982,0,0,0,.051-.516c-.034-.091-.143-.137-.326-.137h-.309ZM21.686,18.473,23.2,12.364H22.48l-1.516,6.109H18.215L21.2,6.427h2.75l-.873,3.549H23.8l.89-3.549h2.733l-2.99,12.046Zm-14.984,0L9.691,6.444h4.416l-.4,1.676H11.965l-.72,2.972h1.692l-.564,2.26H10.665l-.677,2.732H11.72l-.585,2.389Zm-3.024,0a9.816,9.816,0,0,1,.145-1.16q.113-.61.3-1.315l.622-2.518a.693.693,0,0,0,.017-.455c-.046-.086-.155-.128-.326-.128H4.145L2.75,18.473H0L3.007,6.427H6.066a2.615,2.615,0,0,1,2.165.8,2.745,2.745,0,0,1,.223,2.432L8.4,9.881a4.925,4.925,0,0,1-.464,1.211,4.146,4.146,0,0,1-.645.885,2.942,2.942,0,0,1-.7.55,1.6,1.6,0,0,1-.661.206l-.052.189a.935.935,0,0,1,.55.232,1.562,1.562,0,0,1,.421.593,2.786,2.786,0,0,1,.2.919,3.905,3.905,0,0,1-.138,1.211l-.034.138q-.189.739-.3,1.323a9.157,9.157,0,0,0-.146,1.134Zm.773-6.84h.292a.5.5,0,0,0,.421-.163,1.144,1.144,0,0,0,.2-.438l.691-2.758a.672.672,0,0,0,.018-.447c-.046-.091-.155-.138-.327-.138H5.433ZM21.525,5.585a9.024,9.024,0,0,1,16.681,0l-2.891,0a6.44,6.44,0,0,0-10.9,0H21.525Z" transform="translate(2730 1158.563)" fill="#151515" stroke="rgba(0,0,0,0)" stroke-width="1"/></g>
    <style>
        path { fill: #000; }
        @media (prefers-color-scheme: dark) {
            path { fill: #FFF; }
        }
    </style>
</svg>